<svg width="408" height="200" viewBox="0 0 408 200" fill="none" xmlns="http://www.w3.org/2000/svg">
<g clip-path="url(#clip0_1_55)">
<path d="M142.129 0.00103332L115.463 46.1881L88.7972 0.00103332H-0.0043335L115.463 199.999L230.931 0.00103332H142.129Z" fill="#41B883"/>
<path d="M142.129 0.00102759L115.463 46.1881L88.7972 0.00102759H46.1827L115.463 119.997L184.744 0.00102759H142.129Z" fill="#34495E"/>
</g>
<path d="M395.755 98.4715C395.755 88.1907 387.42 79.8557 377.139 79.8557C376.477 79.8557 375.826 79.8912 375.182 79.9592L400.751 4.54659H292.092L317.626 79.8933C317.249 79.8695 316.871 79.8573 316.494 79.8564C306.213 79.8564 297.878 88.1899 297.878 98.4722C297.878 106.782 303.325 113.818 310.841 116.212C306.871 123.089 301.876 129.283 296.204 134.634C288.491 141.91 279.664 147.427 270.117 150.827C258.751 144.987 253.384 132.002 258.227 120.616C258.774 119.33 259.332 118.027 259.866 116.729C268.1 114.808 274.237 107.426 274.237 98.6054C274.237 88.3239 265.902 79.9897 255.62 79.9897C245.339 79.9897 237.005 88.3239 237.005 98.6054C237.005 104.91 240.141 110.479 244.936 113.847C240.329 124.337 233.556 135.317 231.445 148.042C228.916 163.291 231.437 179.479 244.627 188.622C275.344 209.912 308.688 175.423 343.845 166.753C356.586 163.612 370.572 164.118 381.798 157.617C390.228 152.734 395.786 144.642 397.362 135.558C398.921 126.584 396.649 117.649 391.425 110.404C394.228 107.06 395.761 102.835 395.755 98.4715" fill="#99425B"/>
<path d="M392.883 134.78C391.514 142.667 386.643 149.556 379.52 153.682C372.879 157.528 364.922 158.676 356.496 159.891C351.983 160.541 347.316 161.215 342.756 162.339C330.701 165.312 319.024 171.112 307.733 176.721C285.135 187.945 265.619 197.638 247.217 184.884C233.738 175.542 234.36 158.257 235.93 148.786C237.386 140.01 241.321 131.928 245.125 124.113C245.774 122.784 246.417 121.454 247.054 120.12C248.972 120.887 250.985 121.392 253.037 121.621C249.164 134.404 255.255 148.303 268.04 154.871L269.79 155.77L271.642 155.11C281.75 151.51 291.063 145.735 299.324 137.941C304.663 132.903 309.254 127.33 313.028 121.374C314.175 121.548 315.334 121.634 316.494 121.635C328.228 121.635 337.945 112.862 339.449 101.533C344.252 101.357 349.353 101.356 354.184 101.531C355.686 112.862 365.404 121.635 377.139 121.635C382.045 121.635 386.596 120.098 390.345 117.485C392.948 122.814 393.92 128.809 392.883 134.78V134.78ZM255.621 84.5362C263.379 84.5362 269.69 90.848 269.69 98.6061C269.69 101.392 268.872 103.991 267.469 106.179C265.13 109.827 261.155 112.327 256.588 112.638C256.268 112.66 255.946 112.675 255.621 112.675C253.892 112.675 252.236 112.36 250.705 111.787C247.62 110.628 245.038 108.428 243.402 105.568C242.187 103.449 241.549 101.049 241.551 98.6061C241.551 90.848 247.863 84.5362 255.621 84.5362V84.5362ZM302.425 98.4722C302.425 91.4234 307.636 85.5708 314.406 84.5589C315.088 84.4562 315.785 84.403 316.495 84.403C321.005 84.403 325.021 86.5395 327.596 89.8503C328.241 90.6758 328.792 91.5706 329.239 92.5183C330.113 94.3812 330.566 96.4142 330.564 98.4722C330.564 99.5968 330.428 100.69 330.178 101.739C328.806 107.479 323.912 111.867 317.914 112.47C317.448 112.517 316.974 112.541 316.495 112.541C313.788 112.544 311.14 111.761 308.87 110.287C304.996 107.778 302.425 103.421 302.425 98.4722V98.4722ZM361.146 81.7414C358.085 84.6638 355.881 88.3684 354.775 92.4538C349.472 92.2583 344.163 92.2583 338.86 92.4538C337.67 88.0376 335.202 84.1415 331.883 81.1823L346.441 51.7443L361.146 81.7414ZM298.434 9.09458H394.409L371.74 75.9504C370.765 76.184 369.806 76.4811 368.87 76.8398L346.477 31.1592L324.02 76.567C323.041 76.2309 322.041 75.9613 321.026 75.7598L298.434 9.09458ZM391.208 98.4729C391.208 99.8831 390.997 101.245 390.61 102.531C389.69 105.559 387.78 108.191 385.187 110.004C382.829 111.658 380.019 112.545 377.139 112.542C370.643 112.542 365.163 108.115 363.551 102.12C363.231 100.931 363.069 99.7046 363.069 98.4729C363.069 96.5497 363.458 94.7157 364.159 93.0448C364.521 92.1898 364.967 91.3728 365.49 90.6057C368.022 86.8683 372.294 84.4037 377.139 84.4037C377.583 84.4037 378.021 84.4264 378.455 84.4675C385.598 85.1329 391.208 91.1584 391.208 98.4729H391.208ZM400.302 98.4729C400.302 87.1646 392.154 77.7291 381.422 75.7138L407.093 0H285.751L311.461 75.8668C301.102 78.172 293.332 87.4289 293.332 98.4722C293.332 106.765 297.714 114.048 304.282 118.141C301.123 122.848 297.377 127.277 293.084 131.327C286.276 137.75 278.691 142.621 270.514 145.826C262.278 140.652 258.796 130.895 262.412 122.396L262.695 121.729L263.227 120.479C272.273 117.324 278.783 108.714 278.783 98.6061C278.783 85.8337 268.393 75.4431 255.621 75.4431C242.849 75.4431 232.457 85.8337 232.457 98.6061C232.457 105.053 235.108 110.89 239.372 115.094C238.577 116.779 237.769 118.459 236.95 120.132C233.05 128.14 228.631 137.217 226.96 147.298C223.64 167.316 228.995 183.32 242.037 192.358C249.951 197.843 257.989 200 266.076 200C281.305 200 296.71 192.349 311.778 184.864C322.629 179.475 333.85 173.902 344.934 171.168C349.058 170.151 353.302 169.539 357.794 168.891C366.704 167.606 375.916 166.277 384.077 161.551C393.536 156.072 400.011 146.881 401.842 136.337C403.414 127.284 401.523 118.217 396.909 110.527C399.132 106.899 400.306 102.727 400.302 98.4722V98.4729Z" fill="white"/>
<defs>
<clipPath id="clip0_1_55">
<rect width="230.941" height="200" fill="white"/>
</clipPath>
</defs>
</svg>
